<svg width="26" height="26" viewBox="0 0 26 26" fill="none" xmlns="http://www.w3.org/2000/svg">
<g clip-path="url(#clip0_224_210)">
<path d="M6.50008 20.5833C6.50008 21.775 7.47508 22.75 8.66675 22.75H17.3334C18.5251 22.75 19.5001 21.775 19.5001 20.5833V9.75C19.5001 8.55833 18.5251 7.58333 17.3334 7.58333H8.66675C7.47508 7.58333 6.50008 8.55833 6.50008 9.75V20.5833ZM19.5001 4.33333H16.7917L16.0226 3.56417C15.8276 3.36917 15.5459 3.25 15.2642 3.25H10.7359C10.4542 3.25 10.1726 3.36917 9.97758 3.56417L9.20841 4.33333H6.50008C5.90425 4.33333 5.41675 4.82083 5.41675 5.41667C5.41675 6.0125 5.90425 6.5 6.50008 6.5H19.5001C20.0959 6.5 20.5834 6.0125 20.5834 5.41667C20.5834 4.82083 20.0959 4.33333 19.5001 4.33333Z" fill="#FD003F"/>
</g>
<defs>
<clipPath id="clip0_224_210">
<rect width="26" height="26" fill="white"/>
</clipPath>
</defs>
</svg>
