<svg width="26" height="26" viewBox="0 0 26 26" fill="none" xmlns="http://www.w3.org/2000/svg">
<path d="M12.9999 8.66687L4.33325 17.3335V21.6669L8.66658 21.6668L17.3332 13.0002M12.9999 8.66687L16.1076 5.55917L16.1095 5.55732C16.5373 5.12953 16.7515 4.91526 16.9985 4.835C17.2161 4.76431 17.4505 4.76431 17.6681 4.835C17.9149 4.9152 18.1289 5.12923 18.5561 5.55642L20.4409 7.4412C20.8699 7.87021 21.0845 8.08482 21.1649 8.33218C21.2356 8.54976 21.2356 8.78413 21.1649 9.00171C21.0846 9.24889 20.8703 9.46318 20.4419 9.89158L20.4409 9.8925L17.3332 13.0002M12.9999 8.66687L17.3332 13.0002" stroke="#FFB433" stroke-width="2" stroke-linecap="round" stroke-linejoin="round"/>
</svg>
