<svg width="26" height="26" viewBox="0 0 26 26" fill="none" xmlns="http://www.w3.org/2000/svg">
<path d="M8.66671 13H13M13 13H17.3334M13 13V17.3333M13 13V8.66665M4.33337 18.2002V7.80019C4.33337 6.58674 4.33337 5.97957 4.56953 5.51609C4.77725 5.10841 5.10847 4.77719 5.51615 4.56947C5.97963 4.33331 6.58681 4.33331 7.80025 4.33331H18.2003C19.4137 4.33331 20.0201 4.33331 20.4836 4.56947C20.8913 4.77719 21.2231 5.10841 21.4308 5.51609C21.6669 5.97957 21.6669 6.58629 21.6669 7.79974V18.1998C21.6669 19.4132 21.6669 20.0199 21.4308 20.4834C21.2231 20.8911 20.8913 21.223 20.4836 21.4307C20.0206 21.6666 19.415 21.6666 18.2039 21.6666H7.79669C6.58562 21.6666 5.97918 21.6666 5.51615 21.4307C5.10847 21.223 4.77725 20.8912 4.56953 20.4835C4.33337 20.02 4.33337 19.4136 4.33337 18.2002Z" stroke="#29E330" stroke-width="2" stroke-linecap="round" stroke-linejoin="round"/>
</svg>
