<svg class="img-fluid" id="outputsvg" xmlns="http://www.w3.org/2000/svg" style="transform: matrix(1, 0, 0, 1, 0, 0); transform-origin: 50% 50%; cursor: move; max-height: 398.8px; transition: none;" width="2048" height="2048" viewBox="-1000 -1000 22480 22480">
    <g filter="url(#filter0_f_0_1)">
        <rect x="-500" y="-500" width="21480" height="21480" rx="10000" fill="#1A7FC7" fill-opacity="0.2"/>
    </g>
    <g id="l6aNFW7xZPlwm6RwK3hA20I" fill="#00081c" style="transform: none;">
        <g style="transform: none;">
            <path id="p12CDcr9YN" d="M10043 20353 c-18 -2 -33 -5 -33 -6 -1 -1 -11 -136 -24 -299 -12 -164 -24 -299 -27 -302 -7 -7 -411 -28 -417 -21 -4 4 -30 137 -59 297 -29 160 -55 293 -57 296 -11 10 -668 -65 -679 -78 -3 -3 3 -139 11 -302 9 -164 13 -300 9 -304 -3 -4 -66 -17 -139 -29 -73 -13 -163 -29 -200 -36 -38 -7 -70 -11 -72 -8 -2 2 -43 130 -91 284 -48 154 -90 283 -94 287 -4 5 -50 -1 -101 -13 -80 -17 -475 -115 -547 -135 -18 -5 -21 -12 -17 -33 40 -216 103 -575 101 -576 -11 -9 -401 -125 -405 -121 -2 3 -60 126 -128 273 -112 244 -125 268 -146 266 -28 -1 -317 -108 -500 -183 -125 -51 -126 -52 -117 -78 43 -129 169 -547 167 -554 -3 -7 -332 -163 -368 -174 -11 -3 -61 70 -175 255 l-160 260 -160 -83 c-207 -107 -445 -239 -445 -248 0 -3 56 -129 125 -280 94 -203 122 -275 113 -281 -7 -4 -89 -54 -182 -112 -93 -58 -172 -102 -175 -97 -26 38 -375 462 -381 462 -10 0 -281 -188 -437 -303 -97 -72 -120 -93 -113 -106 4 -9 76 -126 159 -260 121 -196 149 -247 139 -256 -7 -7 -60 -49 -118 -95 -58 -46 -126 -101 -153 -123 l-47 -40 -98 94 c-53 51 -150 145 -215 209 -65 63 -122 115 -126 115 -11 0 -268 -231 -403 -361 l-106 -104 92 -112 c50 -62 136 -168 190 -236 l98 -122 -48 -53 c-26 -28 -92 -98 -146 -154 l-98 -102 -235 175 c-129 96 -241 176 -248 179 -15 4 -186 -189 -412 -469 l-40 -49 219 -212 218 -211 -126 -171 -127 -171 -262 149 c-182 103 -265 145 -273 138 -13 -10 -240 -353 -322 -485 l-50 -81 244 -183 244 -182 -30 -52 c-17 -28 -62 -109 -102 -181 -39 -71 -73 -132 -74 -134 -2 -1 -126 47 -276 109 -150 61 -277 112 -283 113 -15 3 -305 -578 -305 -611 0 -5 110 -71 245 -147 135 -76 253 -144 262 -150 15 -11 9 -30 -55 -184 -40 -95 -75 -183 -78 -197 -4 -14 -12 -23 -18 -21 -29 11 -579 158 -581 155 -8 -8 -139 -382 -178 -508 l-45 -144 284 -116 c213 -86 283 -119 279 -129 -3 -8 -29 -99 -57 -203 -50 -183 -52 -188 -77 -188 -14 1 -150 18 -301 39 -151 21 -276 37 -278 36 -5 -5 -71 -310 -105 -490 -31 -162 -33 -181 -18 -187 9 -4 138 -40 286 -79 149 -39 274 -75 278 -79 5 -4 -4 -101 -20 -215 l-28 -207 -306 4 -306 3 -12 -120 c-10 -110 -22 -273 -35 -482 -5 -79 -4 -83 17 -88 12 -3 148 -22 302 -43 l280 -38 3 -212 2 -212 -22 -4 c-13 -3 -151 -19 -308 -37 -157 -17 -286 -32 -286 -33 -6 -5 33 -676 39 -683 1 -1 140 -5 308 -9 l305 -7 18 -166 c10 -91 21 -186 23 -211 l5 -45 -289 -69 c-158 -38 -292 -72 -296 -76 -13 -12 97 -657 114 -675 3 -2 139 12 304 31 308 35 314 35 315 -5 0 -7 20 -94 45 -194 25 -99 44 -181 43 -182 -2 -1 -125 -47 -273 -104 -149 -56 -277 -106 -284 -110 -10 -7 -5 -35 24 -137 43 -152 164 -524 170 -524 2 0 133 32 291 70 159 39 292 69 297 67 4 -1 39 -83 76 -182 38 -99 71 -187 75 -195 5 -11 -55 -47 -251 -152 -142 -76 -264 -142 -271 -146 -10 -7 2 -45 57 -170 68 -155 207 -452 216 -460 2 -2 128 44 281 103 152 58 282 104 288 102 7 -3 37 -54 69 -113 31 -60 75 -141 97 -181 l40 -72 -250 -177 c-233 -165 -249 -178 -238 -198 45 -83 345 -566 352 -566 1 0 123 65 271 144 l268 143 85 -121 c47 -66 103 -144 124 -173 l38 -52 -173 -159 c-94 -87 -196 -181 -225 -208 l-52 -49 102 -131 c57 -72 146 -182 198 -244 52 -62 104 -124 115 -137 l20 -24 249 177 c240 171 249 176 265 158 10 -11 75 -81 145 -157 l128 -138 -49 -56 c-26 -31 -115 -135 -196 -231 l-148 -175 73 -74 c228 -231 415 -406 428 -401 5 2 33 26 62 53 171 162 372 340 383 340 7 0 75 -53 151 -117 77 -65 147 -123 157 -131 17 -12 7 -31 -148 -267 l-166 -255 33 -28 c131 -113 518 -391 528 -380 4 4 85 100 180 213 95 113 181 214 190 224 18 19 22 17 192 -94 95 -62 174 -114 176 -116 4 -3 -22 -58 -157 -337 -56 -115 -101 -210 -101 -212 0 -5 219 -134 370 -218 156 -87 228 -123 234 -116 2 2 72 110 156 239 84 129 158 241 164 248 10 10 49 -6 199 -78 103 -50 187 -95 187 -100 0 -4 -42 -133 -94 -286 -52 -154 -92 -282 -88 -285 16 -15 533 -230 609 -253 21 -7 32 11 155 263 72 149 135 271 140 271 5 0 96 -30 204 -66 157 -54 194 -70 190 -83 -17 -57 -117 -573 -113 -578 15 -15 655 -190 661 -181 2 2 45 128 97 281 52 154 96 282 99 287 3 5 353 -58 417 -75 2 -1 -33 -483 -42 -561 l-5 -51 138 -22 c184 -28 542 -74 547 -70 1 2 30 136 63 297 32 161 61 294 63 297 8 7 414 -28 420 -37 3 -5 11 -138 18 -296 7 -158 17 -291 23 -297 12 -13 495 -29 604 -20 l84 7 0 29 c0 36 40 573 43 576 4 3 419 25 422 21 2 -2 27 -136 56 -298 28 -162 53 -297 55 -299 8 -10 653 66 675 79 8 6 7 82 -5 305 -10 163 -15 300 -12 302 8 8 334 65 379 67 l39 1 58 -185 c32 -102 72 -231 90 -288 l31 -103 32 6 c135 28 627 151 635 160 2 2 -20 137 -49 299 -29 163 -51 298 -48 300 5 5 354 117 384 123 17 3 36 -31 144 -272 69 -151 128 -275 132 -275 25 0 614 223 632 240 5 4 -32 137 -82 296 -50 158 -89 289 -88 290 1 1 87 41 191 89 180 82 191 86 203 68 8 -10 80 -125 161 -255 81 -131 151 -238 156 -238 13 0 373 187 496 258 58 33 104 64 103 70 -1 5 -56 127 -123 272 -66 144 -120 266 -120 270 0 4 71 52 158 106 86 53 167 103 178 111 20 13 30 2 209 -219 103 -128 191 -234 196 -236 10 -4 238 152 432 296 78 57 126 100 123 107 -2 8 -73 122 -155 255 -83 133 -151 247 -151 254 0 6 8 16 18 23 10 6 82 63 161 127 l142 117 67 -60 c37 -32 85 -78 107 -101 22 -23 92 -91 156 -150 l116 -109 164 148 c90 82 204 187 254 233 l89 85 -124 154 c-69 85 -155 191 -192 237 l-68 83 147 154 c81 85 152 151 157 147 6 -3 115 -84 242 -179 127 -95 233 -173 236 -173 8 0 218 243 347 400 l102 125 -58 55 c-32 30 -131 125 -220 211 l-162 156 113 151 c62 83 119 160 127 171 14 19 22 15 278 -130 146 -82 268 -146 271 -142 33 38 321 480 359 551 11 20 -3 32 -226 198 -131 97 -240 179 -243 181 -3 2 5 21 16 41 11 20 58 103 103 184 46 82 84 148 86 148 2 0 120 -48 262 -106 142 -58 268 -110 280 -114 20 -8 27 3 101 148 84 165 224 463 220 467 -2 1 -118 66 -258 145 -140 79 -258 146 -263 149 -6 6 98 272 146 372 l12 26 290 -78 c159 -43 292 -75 296 -71 17 19 226 639 218 646 -2 2 -128 54 -279 116 -151 61 -277 114 -279 115 -2 3 82 329 104 401 2 7 104 -3 305 -31 165 -23 303 -39 305 -35 14 22 139 659 131 667 -3 3 -134 40 -291 83 -157 43 -288 79 -290 82 -4 3 38 327 51 396 l5 23 304 -3 305 -3 5 40 c19 147 51 616 43 637 -4 10 -82 24 -297 53 -161 22 -295 42 -299 45 -4 3 -5 99 -2 215 l5 210 300 33 c165 19 302 36 304 37 8 9 -28 658 -39 675 -4 7 -105 13 -308 17 l-301 6 -6 41 c-3 23 -12 102 -21 176 -8 74 -17 151 -20 170 l-5 35 268 64 c147 36 282 69 299 73 l31 8 -19 123 c-16 107 -98 548 -103 554 -1 2 -138 -13 -305 -32 -167 -19 -304 -34 -305 -33 -4 6 -95 394 -95 405 0 6 10 15 23 19 24 7 541 205 543 207 8 9 -197 657 -207 657 -4 0 -137 -32 -295 -70 -157 -39 -290 -70 -293 -70 -4 0 -15 24 -25 53 -11 28 -43 115 -73 191 -29 77 -52 145 -49 150 2 6 123 74 268 151 l265 140 -55 125 c-72 165 -221 483 -231 493 -5 5 -132 -39 -284 -97 -151 -58 -280 -106 -285 -106 -5 0 -45 69 -89 153 -45 83 -89 166 -99 184 -10 17 -16 34 -14 36 3 2 109 77 235 167 127 89 236 168 244 176 13 12 1 36 -84 176 -54 90 -136 221 -182 291 l-83 128 -83 -44 c-271 -146 -444 -237 -453 -237 -5 0 -25 23 -44 52 -19 28 -72 103 -117 166 -46 64 -83 118 -83 121 0 3 99 96 219 206 121 110 220 205 220 210 0 11 -225 295 -352 444 l-78 92 -47 -34 c-87 -63 -427 -303 -439 -310 -7 -5 -29 11 -55 40 -24 26 -87 94 -140 152 -54 59 -98 109 -98 113 0 4 87 110 194 235 l194 228 -106 108 c-110 111 -376 360 -391 365 -5 2 -107 -87 -227 -198 -119 -110 -221 -200 -226 -200 -4 0 -56 42 -116 93 -59 50 -129 110 -155 131 -33 27 -46 44 -42 55 3 9 76 122 161 252 85 131 154 241 154 246 0 9 -400 313 -502 382 l-47 31 -83 -97 c-46 -54 -132 -155 -191 -225 -60 -70 -112 -130 -117 -133 -5 -3 -83 44 -175 104 -91 60 -170 111 -176 113 -5 2 50 127 124 278 l134 275 -42 26 c-61 39 -356 208 -465 267 l-95 51 -160 -246 c-88 -136 -163 -250 -166 -255 -4 -7 -369 158 -385 175 -2 2 38 129 91 282 52 152 95 283 95 289 0 16 -623 276 -635 265 -2 -3 -63 -125 -134 -272 -71 -147 -134 -267 -138 -267 -29 1 -388 131 -391 142 -1 7 24 142 57 300 l59 287 -32 10 c-127 40 -198 60 -401 111 -126 33 -232 56 -236 52 -4 -4 -49 -134 -100 -290 -52 -155 -98 -281 -104 -279 -5 2 -99 22 -207 43 l-198 39 0 30 c0 17 9 145 20 285 11 140 20 265 20 276 0 20 -11 23 -132 42 -241 39 -540 74 -547 66 -5 -5 -35 -141 -67 -302 l-59 -293 -40 5 c-22 3 -118 11 -212 17 -146 10 -173 15 -173 28 0 9 -7 133 -15 276 -8 143 -15 274 -15 291 0 17 -5 31 -12 31 -165 5 -622 10 -645 6z m872 -1837 c380 -35 603 -66 935 -132 2511 -497 4666 -2139 5814 -4431 181 -363 380 -857 491 -1221 l37 -124 -37 -74 c-72 -141 -217 -269 -362 -319 -59 -20 -304 -67 -1037 -196 l-169 -30 -261 261 -261 261 -64 162 c-227 578 -592 1192 -974 1639 -33 40 -45 59 -35 63 7 2 200 56 428 120 228 64 440 123 470 132 l54 16 -847 226 -848 226 -62 50 c-228 185 -521 388 -772 534 -271 159 -667 347 -932 443 -51 18 -93 36 -93 41 0 4 155 166 344 359 190 194 344 354 343 355 -1 1 -132 -34 -292 -77 -159 -43 -540 -146 -846 -228 l-556 -150 -149 23 c-82 13 -221 31 -309 40 -220 23 -733 31 -987 15 -110 -6 -201 -10 -203 -8 -3 3 -29 143 -129 703 -151 839 -149 827 -121 960 19 87 68 191 129 272 69 91 87 101 187 106 204 10 949 -1 1114 -17z m-2961 -363 c84 -44 217 -171 260 -248 53 -95 66 -147 136 -537 39 -216 82 -454 95 -528 13 -74 36 -200 50 -279 l26 -145 -136 -135 c-135 -136 -135 -136 -228 -170 -568 -210 -1230 -596 -1702 -990 l-60 -50 -11 27 c-6 15 -67 226 -135 470 -68 243 -126 442 -129 442 -5 0 -168 -604 -395 -1461 l-52 -196 -84 -104 c-393 -486 -689 -993 -928 -1589 -36 -91 -70 -167 -74 -169 -5 -1 -166 151 -357 338 l-349 342 25 -93 c50 -188 317 -1179 370 -1372 l53 -198 -19 -117 c-53 -321 -76 -601 -79 -951 -1 -237 9 -482 25 -611 l5 -46 -63 -11 c-35 -5 -418 -75 -853 -153 -900 -163 -927 -166 -1080 -116 -100 33 -189 86 -259 155 l-54 54 -7 144 c-13 260 0 894 24 1139 191 1965 1024 3738 2406 5120 791 793 1729 1412 2771 1830 210 85 676 245 713 245 12 0 55 -17 95 -37z m2811 -1994 c1302 -97 2550 -642 3495 -1527 346 -324 624 -652 885 -1047 278 -419 508 -893 670 -1383 31 -96 53 -177 49 -181 -14 -12 -1363 -353 -1373 -347 -5 3 -11 25 -15 48 -13 84 -78 325 -127 475 -317 967 -950 1794 -1795 2346 -644 421 -1413 687 -2198 762 -88 8 -217 15 -288 15 -70 0 -128 3 -128 6 0 5 -55 315 -124 694 l-22 125 35 8 c112 25 643 28 936 6z m-2151 -271 c20 -93 127 -701 124 -703 -2 -1 -57 -16 -123 -34 -606 -164 -1241 -479 -1717 -852 -49 -38 -91 -69 -96 -69 -4 0 -96 89 -205 198 l-198 198 108 95 c501 441 1030 770 1645 1025 102 42 432 162 450 163 4 1 10 -9 12 -21z m1806 -663 c469 -53 883 -159 1320 -338 1278 -522 2215 -1565 2594 -2887 53 -188 87 -350 73 -355 -7 -2 -145 -38 -307 -79 -299 -76 -522 -122 -540 -111 -5 3 -22 27 -37 53 -24 40 -28 58 -28 122 0 66 4 84 34 145 61 124 237 282 409 369 28 14 52 29 52 32 0 19 -247 451 -275 482 -2 2 -43 -20 -91 -48 -161 -92 -313 -140 -445 -140 -176 0 -281 75 -309 220 -27 143 61 360 222 550 l70 82 -24 25 c-37 40 -225 203 -317 275 l-84 66 -40 -52 c-138 -176 -335 -312 -490 -338 -217 -36 -353 156 -317 448 12 103 40 206 80 305 l28 70 -46 21 c-181 78 -454 173 -475 165 -7 -3 -23 -36 -36 -73 -35 -101 -116 -253 -173 -324 -97 -119 -226 -190 -325 -176 -127 17 -230 136 -282 326 -26 92 -45 277 -37 351 l7 56 -68 6 c-37 4 -159 7 -270 7 l-201 0 -6 28 c-3 15 -33 182 -66 372 -34 190 -63 351 -66 359 -4 12 21 13 163 8 92 -4 229 -14 303 -22z m-1592 -527 c40 -227 76 -425 79 -439 4 -25 0 -28 -79 -59 -45 -18 -95 -39 -110 -47 l-27 -13 30 -82 c41 -112 67 -226 74 -328 10 -135 10 -133 -140 -199 -72 -31 -176 -81 -232 -111 l-102 -54 -69 47 c-90 59 -188 151 -253 237 l-53 69 -30 -22 c-58 -41 -231 -181 -277 -224 l-45 -42 -365 364 c-200 201 -365 369 -367 374 -4 12 233 189 393 293 340 221 716 404 1095 532 124 42 371 114 395 115 6 1 43 -185 83 -411z m-2484 -517 l190 -190 -150 -153 c-162 -166 -270 -292 -399 -463 -547 -728 -902 -1626 -1016 -2570 -17 -142 -22 -257 -26 -541 l-5 -360 -172 -30 -171 -30 -9 61 c-5 33 -10 251 -10 485 -1 466 7 580 65 935 162 990 567 1906 1182 2675 126 158 312 370 325 370 4 0 92 -85 196 -189z m1218 -1416 c-53 -55 -123 -132 -156 -172 l-58 -71 -52 15 c-64 19 -199 81 -275 128 -32 19 -61 35 -64 35 -9 0 -124 -183 -206 -330 -60 -107 -78 -147 -69 -153 149 -90 211 -132 261 -178 l61 -56 -61 -129 c-57 -121 -145 -345 -174 -441 l-12 -43 -51 0 c-62 0 -248 25 -295 39 -19 6 -36 10 -37 8 -11 -12 -83 -391 -97 -514 -4 -38 -3 -43 14 -43 36 0 173 -31 257 -57 82 -27 82 -27 77 -57 -13 -73 -25 -272 -25 -403 0 -79 -3 -143 -6 -143 -4 0 -358 -63 -789 -140 -430 -77 -785 -140 -788 -140 -11 0 -8 480 3 635 51 695 230 1354 536 1977 245 495 517 882 900 1278 l128 131 537 -537 538 -538 -97 -101z m1198 716 c0 -5 -15 -31 -33 -57 -48 -69 -121 -106 -211 -105 -117 1 -112 11 35 83 197 95 209 99 209 79z m2398 -510 c407 -136 758 -353 1057 -655 253 -255 443 -537 575 -854 56 -133 57 -137 36 -144 -11 -4 -111 -23 -221 -42 -110 -20 -247 -44 -305 -55 -58 -10 -105 -18 -106 -17 0 0 -17 53 -38 116 -21 63 -68 178 -105 255 -242 499 -646 862 -1183 1065 -49 19 -88 37 -88 42 0 15 41 90 83 153 39 57 139 185 145 185 2 0 69 -22 150 -49z m-1978 -241 c14 -75 18 -116 11 -118 -52 -17 -309 -155 -395 -212 l-109 -72 -65 66 -66 65 25 21 c62 52 212 162 289 210 79 50 282 161 286 157 1 -1 12 -54 24 -117z m-1421 36 l44 -45 -18 -48 c-23 -62 -89 -126 -151 -147 -65 -22 -179 -32 -188 -17 -5 7 16 39 51 79 81 93 204 222 212 222 4 0 26 -20 50 -44z m3104 -202 c606 -237 1035 -687 1233 -1293 25 -77 23 -90 -16 -91 -8 0 -125 -20 -260 -44 -135 -25 -245 -44 -246 -43 0 1 -23 40 -51 87 -28 47 -69 119 -93 160 -125 219 -301 395 -532 531 -82 48 -89 55 -117 113 -53 112 -73 193 -78 316 -5 109 0 159 28 263 6 21 16 37 24 37 9 0 57 -16 108 -36z m-1629 -131 c10 -60 35 -205 57 -323 21 -118 39 -220 39 -225 0 -6 -26 -27 -58 -47 l-59 -36 -233 233 c-199 200 -232 236 -221 249 24 28 175 120 311 188 74 38 137 68 140 68 3 0 14 -48 24 -107z m-864 -278 l53 -54 -67 -75 c-161 -180 -309 -408 -406 -626 -45 -102 -130 -344 -130 -372 0 -10 -3 -18 -6 -18 -14 0 -104 87 -104 100 0 8 22 80 49 160 85 253 198 477 347 690 81 115 190 250 202 250 4 0 32 -25 62 -55z m347 -347 l232 -231 -59 -71 c-149 -182 -271 -420 -325 -638 -16 -60 -19 -66 -47 -72 -68 -13 -235 -6 -314 14 -81 20 -260 101 -303 137 l-24 20 27 93 c73 256 206 527 365 745 62 85 192 233 206 234 5 1 114 -103 242 -231z m-1619 60 c17 -29 38 -73 47 -97 19 -54 20 -151 2 -194 -38 -89 -134 -156 -270 -187 -38 -8 -39 -8 -32 18 23 92 199 512 214 512 4 0 21 -24 39 -52z m2267 -178 l7 -45 -51 50 c-28 27 -51 52 -51 55 0 3 17 15 38 27 l37 21 7 -31 c3 -18 9 -52 13 -77z m1642 21 c76 -58 194 -172 143 -138 -14 9 -55 35 -93 58 -62 38 -162 139 -139 139 6 0 46 -27 89 -59z m-1901 -295 l104 -104 -52 -75 c-29 -41 -66 -97 -83 -123 -33 -53 -128 -130 -245 -199 -78 -45 -187 -92 -195 -83 -3 3 10 53 29 111 39 119 111 271 178 373 44 68 149 204 156 204 3 0 51 -47 108 -104z m9084 -432 c89 -26 205 -92 269 -152 72 -69 68 -41 77 -437 17 -729 -71 -1489 -256 -2210 -287 -1117 -806 -2168 -1518 -3074 -372 -474 -855 -963 -1312 -1332 -793 -639 -1678 -1118 -2652 -1435 -203 -66 -206 -66 -316 6 -126 81 -217 192 -266 322 -15 39 -58 250 -111 548 -48 267 -106 595 -131 730 l-43 245 231 232 c231 231 232 232 307 259 239 85 652 280 912 429 261 151 567 361 804 554 55 44 103 81 106 81 3 0 63 -207 134 -460 71 -253 132 -457 135 -453 4 5 103 368 220 808 116 440 219 811 228 825 9 14 43 59 77 100 291 355 575 809 775 1240 76 164 202 470 215 523 4 15 10 27 14 27 3 0 161 -151 350 -335 189 -185 345 -334 348 -332 4 5 -13 69 -288 1087 l-150 555 20 145 c55 382 74 672 70 1011 l-4 246 635 113 c349 63 691 124 760 137 142 26 267 25 360 -3z m-11357 -343 c106 -101 132 -223 71 -331 -28 -49 -36 -56 -78 -67 -26 -6 -71 -15 -101 -18 l-55 -7 0 104 c0 104 16 353 25 396 l5 22 43 -26 c23 -15 64 -47 90 -73z m9267 -235 c0 -893 -197 -1742 -590 -2541 -171 -348 -339 -623 -561 -920 -391 -521 -914 -1014 -1437 -1353 -258 -166 -786 -398 -1202 -527 -163 -51 -501 -137 -508 -130 -5 4 -282 1549 -282 1569 0 7 39 25 88 40 78 26 332 122 339 130 2 1 -8 30 -22 64 -14 34 -25 65 -25 70 0 5 44 26 98 47 133 52 394 180 526 259 l110 65 29 -40 c17 -23 34 -36 40 -32 50 29 270 208 361 294 l60 56 -18 27 -17 27 48 41 c93 79 370 364 452 465 46 57 87 101 90 98 7 -4 74 98 249 378 98 158 250 460 326 649 104 258 196 575 245 843 25 137 51 324 51 370 0 18 5 37 10 40 11 7 185 39 755 141 176 31 410 74 520 94 110 21 215 38 233 39 l32 1 0 -264z m-1624 -88 c-19 -193 -74 -470 -144 -720 -48 -172 -74 -230 -41 -90 16 66 57 301 72 413 l5 35 -85 13 c-189 27 -383 112 -483 213 -33 33 -60 63 -60 66 0 4 165 37 368 73 202 37 369 67 371 68 2 0 0 -32 -3 -71z m-1922 -351 c143 -58 347 -199 354 -243 8 -55 -151 -458 -234 -591 -252 -404 -631 -746 -1076 -969 -139 -70 -338 -148 -348 -137 -7 8 -140 744 -140 776 0 11 30 32 90 62 178 89 311 186 469 339 199 194 333 396 447 673 20 48 37 89 39 91 1 1 47 11 101 22 130 25 191 21 298 -23z m-499 -44 c-3 -16 -33 -82 -65 -148 -153 -316 -369 -561 -661 -752 -95 -62 -226 -130 -234 -122 -6 7 -57 271 -53 274 2 1 28 18 58 37 88 55 229 179 300 263 63 74 170 229 170 246 0 10 147 125 208 163 29 18 77 34 140 46 140 26 146 26 137 -7z m-2731 -539 c92 -86 163 -141 256 -197 57 -35 88 -62 129 -116 l54 -71 -23 -85 c-13 -47 -24 -85 -25 -85 -9 0 -147 61 -219 97 -178 89 -323 199 -472 356 -52 55 -94 103 -94 106 0 6 263 56 309 60 7 1 45 -29 85 -65z m4874 32 c67 -16 72 -20 66 -39 -41 -139 -276 -660 -330 -732 -14 -19 -15 -19 -58 3 -78 42 -220 156 -276 224 -31 36 -69 92 -85 125 -27 52 -30 68 -30 149 0 82 3 94 28 132 46 71 143 127 262 152 67 15 341 5 423 -14z m-5322 -73 c175 -230 472 -450 752 -557 l69 -27 -53 -192 c-30 -106 -75 -270 -101 -364 -26 -96 -52 -173 -59 -173 -23 0 -262 103 -364 157 -231 123 -424 268 -615 464 -161 165 -316 373 -396 531 -26 51 -27 57 -11 62 9 3 172 33 362 66 190 33 350 62 355 65 23 9 34 3 61 -32z m-787 -270 c211 -358 497 -648 854 -869 113 -70 317 -170 438 -216 l90 -33 -6 -35 c-4 -19 -10 -39 -15 -44 -11 -11 -56 5 -208 70 -473 203 -893 556 -1178 989 -84 128 -159 263 -150 272 12 13 81 20 89 9 4 -6 43 -70 86 -143z m-969 -11 c0 -26 -142 -213 -153 -202 -7 8 -66 165 -62 168 3 3 183 40 203 41 6 1 12 -3 12 -7z m-252 -150 l42 -107 -22 -18 c-25 -19 -214 -134 -231 -140 -20 -6 249 -487 273 -487 4 0 38 18 74 40 36 22 92 52 124 66 l57 25 15 -23 c93 -141 250 -342 364 -466 42 -45 76 -87 76 -94 0 -14 -98 -143 -139 -182 l-30 -29 72 -67 c96 -89 196 -174 285 -243 l73 -56 50 59 c27 33 67 77 88 99 l39 40 155 -103 c143 -96 354 -218 452 -262 22 -10 41 -19 43 -20 5 -2 -57 -183 -73 -215 -9 -17 -15 -32 -13 -33 12 -10 243 -101 331 -132 63 -21 106 -41 104 -48 -2 -6 -46 -162 -97 -346 -212 -767 -289 -1042 -294 -1047 -16 -16 -432 154 -701 287 -930 459 -1676 1143 -2208 2022 -117 194 -302 565 -382 768 -61 153 -175 489 -175 514 0 19 -9 17 300 71 198 35 1267 227 1300 234 3 0 24 -47 48 -107z m-1655 -422 c223 -670 545 -1247 997 -1790 138 -165 472 -499 635 -634 363 -301 674 -504 1095 -714 209 -105 570 -258 688 -293 31 -9 41 -17 38 -28 -3 -9 -12 -42 -21 -73 -9 -32 -20 -58 -24 -58 -5 0 -75 23 -156 50 -667 228 -1290 580 -1850 1046 -163 136 -528 499 -666 664 -419 497 -738 1027 -971 1609 -71 178 -141 382 -133 389 5 5 284 60 292 58 0 -1 35 -102 76 -226z m-741 -17 l106 -108 75 -191 c234 -591 563 -1154 956 -1633 l61 -75 -465 -130 c-255 -72 -462 -132 -461 -134 4 -4 156 -44 955 -257 l664 -177 91 -76 c477 -398 1064 -741 1659 -972 81 -32 148 -61 148 -64 0 -4 -150 -162 -334 -350 l-335 -342 81 22 c45 12 244 65 442 119 198 53 527 142 730 197 l370 100 170 -26 c378 -59 704 -81 1066 -74 l235 5 57 -321 c32 -177 84 -470 117 -652 32 -182 78 -434 100 -560 61 -336 56 -435 -30 -610 -24 -49 -62 -106 -98 -145 l-59 -64 -104 -6 c-167 -11 -721 -10 -894 1 -781 49 -1435 174 -2145 409 -1770 586 -3303 1761 -4326 3316 -406 618 -703 1230 -939 1937 -82 247 -84 252 -69 287 71 171 230 317 409 375 28 9 174 38 325 65 737 131 1303 233 1330 240 3 0 53 -47 112 -106z m3132 -144 c58 -19 131 -90 150 -146 32 -94 18 -222 -41 -352 l-25 -56 -65 70 c-122 130 -372 459 -359 472 2 2 34 10 72 18 78 16 208 13 268 -6z m5682 -34 c75 -17 189 -62 267 -105 l57 -32 -62 -75 c-111 -134 -273 -305 -387 -408 -62 -55 -116 -101 -121 -103 -16 -6 -128 177 -162 263 -36 91 -50 235 -29 298 26 79 93 141 181 168 42 13 192 9 256 -6z m-1416 -70 c0 -3 -41 -32 -91 -65 -186 -122 -495 -272 -511 -247 -15 24 -7 33 60 55 128 45 298 123 417 192 134 76 125 72 125 65z m-3254 -740 c59 -37 108 -112 125 -194 13 -58 15 -243 4 -261 -13 -21 -338 160 -529 293 l-78 55 43 32 c107 78 199 110 305 107 70 -2 87 -6 130 -32z m3616 -5 c35 -10 91 -36 126 -57 61 -37 222 -169 222 -182 0 -9 -143 -93 -283 -166 -112 -59 -397 -185 -415 -185 -9 0 -27 90 -37 185 -9 81 10 209 40 270 66 136 189 184 347 135z m-2455 -421 c86 -41 167 -162 204 -307 25 -99 25 -99 -13 -94 -79 9 -271 43 -364 63 l-102 21 24 87 c69 251 66 245 99 252 42 10 103 1 152 -22z m-102 -428 c83 -16 191 -35 242 -42 l91 -12 7 -58 c4 -32 4 -82 0 -110 -5 -39 -4 -54 6 -60 8 -5 78 -9 156 -9 126 0 142 -2 147 -17 3 -10 23 -119 45 -243 22 -124 63 -351 90 -505 28 -154 69 -383 91 -510 23 -126 44 -239 47 -249 5 -19 -1 -19 -193 -12 -421 15 -799 66 -1209 163 -82 19 -155 38 -161 42 -7 4 23 127 87 356 83 299 342 1233 357 1288 3 13 11 17 26 13 11 -3 89 -18 171 -35z m2465 -1702 c-122 -44 -315 -97 -324 -88 -5 5 -8 10 -5 13 6 5 350 93 369 94 8 0 -10 -8 -40 -19z m-2935 -39 c375 -91 779 -145 1187 -157 209 -6 217 -7 222 -27 3 -12 6 -31 6 -43 l0 -23 -262 0 c-370 0 -654 23 -968 76 -154 26 -410 80 -418 88 -2 3 4 35 13 71 16 59 21 66 39 60 12 -3 93 -23 181 -45z">
            </path>
        </g>
    </g>
    <defs>
        <filter id="filter0_f_0_1" x="-1000" y="-1000" width="24480" height="24480" filterUnits="userSpaceOnUse" color-interpolation-filters="sRGB">
            <feFlood flood-opacity="0" result="BackgroundImageFix"/>
            <feBlend mode="normal" in="SourceGraphic" in2="BackgroundImageFix" result="shape"/>
            <feGaussianBlur stdDeviation="500" result="effect1_foregroundBlur_0_1"/>
        </filter>
    </defs>
</svg>